<?xml version="1.0" encoding="UTF-8"?>
<svg width="456" height="456" viewBox="0 0 456 456" xmlns="http://www.w3.org/2000/svg" xmlns:xlink="http://www.w3.org/1999/xlink" style="fill-rule:evenodd;clip-rule:evenodd;stroke-linejoin:round;stroke-miterlimit:2;">
	<path d="M105.5,281.609c-2.703,0-5.001-0.9-6.893-2.702c-1.892-1.848-2.838-4.042-2.838-6.582c0-2.587,0.946-4.804,2.838-6.652 c1.892-1.848,4.19-2.772,6.893-2.772c2.748,0,5.068,0.924,6.96,2.772c1.937,1.848,2.906,4.065,2.906,6.652 c0,2.54-0.969,4.734-2.906,6.582C110.568,280.709,108.248,281.609,105.5,281.609z" fill="#ffffff" />
	<path d="M213.561,280.084h-17.571l-46.291-73.03c-1.171-1.848-2.14-3.765-2.906-5.751h-0.406c0.361,2.125,0.541,6.675,0.541,13.65 v65.132h-15.543v-99.36h18.719l44.737,71.298c1.892,2.957,3.109,4.989,3.649,6.098h0.27c-0.45-2.633-0.676-7.09-0.676-13.373v-64.023 h15.476V280.084z" fill="#ffffff" />
	<path d="M289.251,280.084h-54.401v-99.36h52.238v13.997h-36.154v28.131h33.316v13.927h-33.316v29.378h38.316V280.084z" fill="#ffffff" />
	<path d="M366.565,194.721h-27.843v85.363h-16.084v-85.363h-27.775v-13.997h71.702V194.721z" fill="#ffffff" />
</svg>
